<svg width="562" height="562" viewBox="0 0 562 562" fill="none" xmlns="http://www.w3.org/2000/svg">
<path d="M159.124 427.082C157.802 427.149 156.26 427.103 155.8 428.625C155.444 429.804 155.416 431.05 156.036 432.162C157.096 434.063 158.825 435.28 161.064 435.125C163.066 434.986 165.944 433.461 166.157 431.244C166.278 429.994 165.498 428.648 164.843 427.641C164.141 426.561 163.553 425.44 162.627 424.524C161.377 423.287 160.293 423.073 158.948 424.26C158.212 424.909 157.487 425.822 157.105 426.728C156.917 427.175 156.987 427.554 156.943 428.016C156.883 428.632 156.857 427.713 157 427.419" stroke="#00ADB5" stroke-opacity="0.5" stroke-linecap="round" stroke-linejoin="round"/>
<path d="M165.537 431.255C166.551 432.346 167.405 433.327 169.36 433.564C170.73 433.729 172.135 433.519 173.457 433.274C174.403 433.099 177.49 431.985 175.109 431.641" stroke="#00ADB5" stroke-opacity="0.5" stroke-linecap="round" stroke-linejoin="round"/>
<path d="M177.796 423.769C176.178 425.243 173.854 428.215 174.378 430.715C174.563 431.594 174.895 432.206 175.326 432.983C176.193 434.547 177.801 434.24 179.256 433.994C180.31 433.815 181.616 433.057 182.105 432.1C182.781 430.778 181.856 428.522 181.001 427.485C180.047 426.327 179.334 424.962 178.246 423.924C177.957 423.648 177.745 423.358 177.328 423.409C176.859 423.467 176.628 423.888 177.237 423.947" stroke="#00ADB5" stroke-opacity="0.5" stroke-linecap="round" stroke-linejoin="round"/>
<path d="M302.547 212.331C301.226 212.399 299.683 212.353 299.224 213.874C298.867 215.053 298.839 216.3 299.459 217.412C300.519 219.313 302.249 220.529 304.488 220.374C306.489 220.236 309.367 218.711 309.581 216.494C309.701 215.243 308.922 213.898 308.267 212.891C307.565 211.811 306.977 210.69 306.05 209.773C304.801 208.537 303.716 208.323 302.372 209.509C301.636 210.159 300.911 211.072 300.529 211.978C300.341 212.425 300.411 212.804 300.366 213.266C300.307 213.881 300.28 212.963 300.424 212.669" stroke="#00ADB5" stroke-opacity="0.5" stroke-linecap="round" stroke-linejoin="round"/>
<path d="M308.96 216.505C309.974 217.596 310.828 218.577 312.784 218.813C314.153 218.979 315.559 218.769 316.88 218.524C317.827 218.348 320.914 217.234 318.532 216.891" stroke="#00ADB5" stroke-opacity="0.5" stroke-linecap="round" stroke-linejoin="round"/>
<path d="M321.22 209.018C319.601 210.493 317.277 213.465 317.802 215.964C317.986 216.844 318.318 217.455 318.749 218.233C319.617 219.797 321.224 219.49 322.679 219.243C323.734 219.065 325.04 218.307 325.529 217.35C326.204 216.028 325.279 213.771 324.424 212.734C323.47 211.577 322.757 210.211 321.67 209.174C321.38 208.897 321.168 208.608 320.751 208.659C320.282 208.717 320.051 209.138 320.661 209.197" stroke="#00ADB5" stroke-opacity="0.5" stroke-linecap="round" stroke-linejoin="round"/>
<path d="M194.848 154.556C202.704 151.7 209.346 146.368 215.99 141.376C221.211 137.452 226.661 133.603 232.322 130.328C233.439 129.682 235.06 128.321 236.411 129.098C237.75 129.868 238.391 131.673 239.399 132.803C241.881 135.586 244.034 138.901 245.989 142.079C248.142 145.576 244.27 147.025 241.778 148.939C238.948 151.113 236.227 153.375 233.184 155.241C230.292 157.015 227.856 159.61 225.166 161.674C221.066 164.821 217.188 168.217 213.099 171.368C210.665 173.244 207.939 174.704 205.58 176.662C204.754 177.348 203.96 178.284 203.03 178.832C202.284 179.272 201.506 177.228 201.293 176.837C199.602 173.73 196.739 171.441 195.102 168.205C194.073 166.17 193.484 163.724 192.199 161.832C191.586 160.929 190.033 158.88 190.91 157.732C191.806 156.56 194.067 156.174 195.354 155.397C196.358 154.791 197.579 154.041 198.692 153.659C199.501 153.382 200.321 152.832 201.061 152.418C203.006 151.329 201.021 151.684 199.743 152.035" stroke="#00ADB5" stroke-opacity="0.5" stroke-linecap="round" stroke-linejoin="round"/>
<path d="M195.444 160.392C199.744 163.664 203.452 168.155 206.633 172.54C206.713 172.651 207.524 173.34 207.37 173.551C207.072 173.959 204.292 171.72 204.028 171.497" stroke="#00ADB5" stroke-opacity="0.5" stroke-linecap="round" stroke-linejoin="round"/>
<path d="M200.371 156.736C203.977 158.155 205.992 160.387 208.777 162.837C210.018 163.928 211.292 164.928 212.38 166.175C212.891 166.761 213.224 167.499 213.688 168.123C214.324 168.977 211.581 166.999 211.257 166.771" stroke="#00ADB5" stroke-opacity="0.5" stroke-linecap="round" stroke-linejoin="round"/>
<path d="M206.064 154.082C208.433 156.673 210.819 159.234 213.278 161.739C214.213 162.69 215.291 163.585 216.072 164.675C217.459 166.61 215.641 164.097 215.011 163.377" stroke="#00ADB5" stroke-opacity="0.5" stroke-linecap="round" stroke-linejoin="round"/>
<path d="M209.914 152.2C211.726 153.555 213.627 154.882 215.104 156.617C215.711 157.329 216.192 158.145 216.849 158.813C217.658 159.636 218.346 160.572 219.163 161.375C220.327 162.519 220.488 162.836 219.112 161.409" stroke="#00ADB5" stroke-opacity="0.5" stroke-linecap="round" stroke-linejoin="round"/>
<path d="M214.932 149.215C216.895 151.081 218.697 152.958 220.277 155.156C220.977 156.129 221.511 157.226 222.443 158.011C223.296 158.73 223.919 158.974 222.948 157.846" stroke="#00ADB5" stroke-opacity="0.5" stroke-linecap="round" stroke-linejoin="round"/>
<path d="M219.78 146.148C221.514 147.733 223.234 149.193 224.553 151.146C225.157 152.04 225.605 153.043 226.295 153.881C227.695 155.581 226.705 154.697 225.685 153.536" stroke="#00ADB5" stroke-opacity="0.5" stroke-linecap="round" stroke-linejoin="round"/>
<path d="M224.291 142.916C226.674 145.679 228.589 148.831 230.979 151.564C232.589 153.405 230.31 150.485 229.941 149.969" stroke="#00ADB5" stroke-opacity="0.5" stroke-linecap="round" stroke-linejoin="round"/>
<path d="M229.65 140.516C231.946 139.827 234.341 138.973 235.74 136.883C236.126 136.307 236.599 135.818 236.799 135.146C237.075 134.223 237 134.623 236.244 135.165" stroke="#00ADB5" stroke-opacity="0.5" stroke-linecap="round" stroke-linejoin="round"/>
<path d="M232.914 143.892C234.822 142.436 236.951 140.849 238.433 138.91C239.172 137.942 240.512 136.804 238.664 138.128" stroke="#00ADB5" stroke-opacity="0.5" stroke-linecap="round" stroke-linejoin="round"/>
<path d="M238.201 147.84C239.964 146.259 241.539 144.783 243.183 143.111C243.714 142.571 245.233 141.95 243.448 142.247" stroke="#00ADB5" stroke-opacity="0.5" stroke-linecap="round" stroke-linejoin="round"/>
<path d="M237.016 146.841C238.824 145.571 240.873 144.086 242.371 142.406C242.771 141.958 243.094 141.447 243.465 140.977C244.088 140.19 244.095 140.477 243.265 140.484" stroke="#00ADB5" stroke-opacity="0.5" stroke-linecap="round" stroke-linejoin="round"/>
<path d="M199.675 163.718C208.322 161.139 211.258 152.163 218.539 147.627C219.425 147.075 220.162 146.438 221.166 146.094C221.838 145.864 222.645 145.801 223.267 145.483C223.646 145.29 226.83 143.309 224.679 144.047" stroke="#00ADB5" stroke-opacity="0.5" stroke-linecap="round" stroke-linejoin="round"/>
<path d="M196.036 160.891C197.08 159.846 198.002 158.954 199.266 158.247C199.473 158.131 199.775 158.137 199.952 157.972C200.303 157.646 200.833 157.172 200.999 156.724C201.654 154.96 203.97 155.52 205.304 154.733C206.573 153.983 207.799 153.219 209.09 152.482C210.513 151.671 211.208 150.906 212.394 149.804C213.483 148.793 214.545 147.765 215.686 146.818C216.62 146.043 218.032 145.393 218.679 144.348C219.41 143.169 221.108 141.903 222.492 142.268C222.968 142.393 226.319 144.792 224.126 143.253" stroke="#00ADB5" stroke-opacity="0.5" stroke-linecap="round" stroke-linejoin="round"/>
<path d="M203.14 166.042C209.711 163.345 213.874 156.488 218.621 151.462C220.369 149.611 222.72 148.496 224.538 146.686C225.315 145.912 226.94 145.167 225.149 145.009" stroke="#00ADB5" stroke-opacity="0.5" stroke-linecap="round" stroke-linejoin="round"/>
<path d="M205.177 168.294C211.178 165.356 215.431 159.224 220.048 154.485C222.148 152.329 224.188 150.118 226.31 147.983C227.277 147.01 228.85 146.495 226.809 147.391" stroke="#00ADB5" stroke-opacity="0.5" stroke-linecap="round" stroke-linejoin="round"/>
<path d="M207.059 172.144C210.927 169.036 214.139 165.59 217.416 161.881C219.409 159.625 221.192 157.045 223.468 155.061C224.774 153.922 225.827 152.543 227.031 151.318C227.516 150.825 227.875 150.23 228.372 149.742C229.49 148.644 228.687 149.658 227.926 150.239" stroke="#00ADB5" stroke-opacity="0.5" stroke-linecap="round" stroke-linejoin="round"/>
<path d="M207.745 173.735C209.67 172.181 212.408 170.77 213.797 168.647C214.301 167.876 215.545 166.018 216.332 165.593C217.373 165.03 217.973 163.678 218.77 162.868C219.599 162.025 220.41 161.202 221.298 160.409C222.131 159.666 222.51 158.257 223.511 157.645C224.626 156.963 225.249 155.8 226.168 154.946C226.964 154.207 228.411 153.501 229.361 152.97C229.888 152.675 230.277 152.242 230.862 152.042C232.046 151.636 231.284 151.829 230.249 151.69" stroke="#00ADB5" stroke-opacity="0.5" stroke-linecap="round" stroke-linejoin="round"/>
<path d="M229.445 141.148C230.864 141.672 232.633 142.109 233.883 143.03C234.69 143.624 235.386 144.21 233.916 143.127" stroke="#00ADB5" stroke-opacity="0.5" stroke-linecap="round" stroke-linejoin="round"/>
<path d="M231.19 138.864C233.214 139.607 234.623 140.356 236.21 141.623C237.248 142.451 237.089 142.234 236.003 141.429" stroke="#00ADB5" stroke-opacity="0.5" stroke-linecap="round" stroke-linejoin="round"/>
<path d="M233.945 136.656C235.631 137.83 237.252 139.136 239.011 140.187C240.046 140.805 239.48 140.714 238.682 140.229" stroke="#00ADB5" stroke-opacity="0.5" stroke-linecap="round" stroke-linejoin="round"/>
<path d="M235.568 134.835C237.361 135.869 239.007 136.885 240.63 138.125C241.37 138.691 240.653 138.653 240.094 138.2" stroke="#00ADB5" stroke-opacity="0.5" stroke-linecap="round" stroke-linejoin="round"/>
<path d="M230.447 140.384C232.025 138.836 233.6 137.377 235.056 135.775C235.469 135.32 237.964 132.804 236.865 134.109" stroke="#00ADB5" stroke-opacity="0.5" stroke-linecap="round" stroke-linejoin="round"/>
<path d="M231.65 143.483C233.65 142.031 236.515 140.115 237.344 137.738C237.588 137.038 238.037 136.359 238.641 135.92C239.253 135.474 239.865 135.305 238.941 136.066" stroke="#00ADB5" stroke-opacity="0.5" stroke-linecap="round" stroke-linejoin="round"/>
<path d="M230.178 143.286C232.346 141.358 234.163 140.097 235.524 137.597C235.878 136.947 236.263 136.418 236.787 135.931C237.343 135.414 238.114 134.955 237.048 135.873" stroke="#00ADB5" stroke-opacity="0.5" stroke-linecap="round" stroke-linejoin="round"/>
<path d="M237.379 145.031C238.228 145.692 239.084 146.311 239.979 146.879C240.348 147.113 239.905 146.686 239.746 146.608" stroke="#00ADB5" stroke-opacity="0.5" stroke-linecap="round" stroke-linejoin="round"/>
<path d="M239.415 142.366C239.471 142.424 242.735 145.815 242.17 145.074" stroke="#00ADB5" stroke-opacity="0.5" stroke-linecap="round" stroke-linejoin="round"/>
<path d="M241.635 141.465C242.347 142.295 244.537 144.735 243.757 143.968" stroke="#00ADB5" stroke-opacity="0.5" stroke-linecap="round" stroke-linejoin="round"/>
<path d="M236.211 146.134C237.628 145.048 240.712 142.923 241.59 141.129C241.936 140.422 243.288 139.601 242.004 140.495" stroke="#00ADB5" stroke-opacity="0.5" stroke-linecap="round" stroke-linejoin="round"/>
<path d="M236.341 146.511C236.455 146.621 238.684 149.54 239.34 148.292C239.674 147.655 240.11 146.825 240.809 146.524C242.036 145.995 242.446 143.996 243.691 143.569C245.103 143.085 245.076 142.042 243.851 141.555C243.37 141.364 243.854 140.426 243.333 140.453C242.855 140.478 242.623 140.28 242.087 140.326" stroke="#00ADB5" stroke-opacity="0.5" stroke-linecap="round" stroke-linejoin="round"/>
<path d="M229.316 140.771C230.012 142.484 230.116 143.09 231.427 143.903C231.781 144.122 232.291 143.914 232.559 144.085C233.089 144.422 234.192 144.534 234.658 144.06C235.594 143.107 235.967 142.469 237.31 141.964C238.158 141.645 238.899 140.772 239.348 140.032C239.842 139.219 240.645 138.648 241.162 137.834C241.383 137.487 239.979 136.404 240.026 135.772C240.04 135.593 238.267 135.417 237.986 135.239C237.646 135.023 237.507 134.751 237.371 134.357C237.174 133.781 236.664 134.423 235.985 134.411" stroke="#00ADB5" stroke-opacity="0.5" stroke-linecap="round" stroke-linejoin="round"/>
<path d="M197.782 158.607C199.723 159.567 201.385 160.724 203.094 161.992C204.578 163.092 206.309 163.769 207.786 164.839C208.837 165.601 209.849 167.208 210.577 168.268C210.819 168.622 210.995 168.948 211.153 169.335C211.518 170.224 211.251 168.134 211.225 167.906" stroke="#00ADB5" stroke-opacity="0.5" stroke-linecap="round" stroke-linejoin="round"/>
<path d="M218.72 145.106C219.223 145.747 221.173 149.204 220.961 146.726" stroke="#00ADB5" stroke-opacity="0.5" stroke-linecap="round" stroke-linejoin="round"/>
<path d="M201.729 370.386C201.85 371.642 202.382 372.502 202.747 373.67C202.995 374.465 203.539 375.115 203.802 375.897C204.086 376.741 204.536 377.744 204.971 378.514C205.344 379.173 205.571 379.786 206.064 380.384C206.936 381.441 207.555 382.661 208.432 383.705C209.707 385.222 211.919 387.255 213.982 387.338C214.644 387.365 215.354 387.64 216.01 387.604C216.573 387.574 217.249 387.611 217.796 387.76C218.694 388.005 219.7 387.942 220.555 388.215C221.017 388.363 221.544 388.263 222.013 388.398C222.621 388.572 223.344 388.67 223.974 388.731C226.039 388.93 228.099 389.116 230.184 389.052C231.313 389.018 232.383 389.495 233.506 389.405C234.56 389.32 235.923 389.643 236.939 389.311C238.188 388.902 239.459 388.192 240.474 387.356C240.983 386.936 241.389 386.416 241.758 385.872C242.244 385.158 242.552 384.367 243.039 383.655C244.738 381.171 245.844 378.332 247.279 375.711C247.617 375.093 248.122 374.615 248.51 374.051C248.608 373.909 248.664 373.72 248.814 373.589C249.377 373.097 248.404 372.945 247.974 372.698" stroke="#00ADB5" stroke-opacity="0.5" stroke-linecap="round" stroke-linejoin="round"/>
<path d="M201.488 370.479C202.642 369.237 203.606 368.336 205.168 367.721C206.476 367.206 207.842 366.577 209.048 365.857C210.902 364.751 213.339 364.413 215.483 364.233C217.817 364.036 220.122 363.766 222.457 363.991C223.179 364.061 223.873 364.347 224.595 364.428C225.458 364.526 226.323 364.636 227.176 364.793C228.487 365.032 229.846 365.136 231.166 365.293C233.009 365.51 234.684 366.636 236.516 366.962C237.605 367.155 238.87 367.443 239.909 367.845C240.298 367.995 240.747 368.115 241.103 368.333C241.546 368.603 241.835 369.016 242.236 369.323C243.531 370.312 245.032 370.864 246.457 371.658C246.894 371.901 247.646 372.319 248.151 372.368C248.846 372.435 248.687 373.715 248.81 372.431" stroke="#00ADB5" stroke-opacity="0.5" stroke-linecap="round" stroke-linejoin="round"/>
<path d="M248.618 373.223C247.658 374.281 247.01 374.656 245.739 375.206C244.742 375.637 243.657 375.906 242.577 375.997C241.569 376.083 240.473 376.122 239.461 376.106C238.619 376.092 237.776 375.913 236.913 375.928C234.961 375.962 232.965 376.272 231.051 376.637C228.318 377.157 225.744 376.991 222.984 376.876C219.972 376.75 216.989 376.231 214.111 375.34C213.141 375.039 212.076 375.123 211.072 374.986C209.966 374.836 208.907 374.425 207.897 373.963C207.472 373.769 207.09 373.497 206.639 373.347C206.111 373.172 205.557 373.168 205.034 372.987C204.304 372.735 203.464 372.325 202.876 371.827C202.62 371.611 202.223 371.414 202.035 371.107C201.981 371.017 201.918 370.823 201.928 370.723C201.95 370.486 201.75 370.527 202.039 370.763" stroke="#00ADB5" stroke-opacity="0.5" stroke-linecap="round" stroke-linejoin="round"/>
<path d="M222.843 382.488C223.548 382.478 224.469 382.58 224.267 381.654C224.202 381.357 223.972 381.304 223.732 381.198C223.018 380.881 221.652 381.23 221.301 381.973C220.67 383.307 221.468 384.89 222.994 384.554C223.409 384.462 224.151 384.247 224.442 383.906C224.792 383.496 224.318 383.581 224.054 383.126" stroke="#00ADB5" stroke-opacity="0.5" stroke-linecap="round" stroke-linejoin="round"/>
<path d="M220.865 380.793C222.02 380.454 222.607 380.324 223.732 380.433C224.185 380.476 224.415 380.466 224.79 380.766C225.408 381.261 225.557 382.104 225.418 382.82C225.301 383.424 225.019 384.241 224.749 384.8C224.547 385.215 224.145 385.252 223.733 385.294C223.357 385.332 222.571 385.048 222.265 385.181C221.94 385.323 220.991 385.29 220.783 384.949C220.592 384.635 220.368 384.486 220.243 384.115C220.123 383.762 220.085 383.431 219.995 383.082C219.871 382.603 219.69 381.309 220.344 381.09C220.728 380.962 220.895 380.88 221.316 380.92C221.435 380.932 221.529 381.031 221.651 381.042C221.827 381.059 221.322 380.895 221.146 380.878" stroke="#00ADB5" stroke-opacity="0.5" stroke-linecap="round" stroke-linejoin="round"/>
<path d="M223.313 376.399C224.223 375.431 225.065 374.424 225.998 373.488C226.5 372.985 227.103 372.569 227.637 372.093C229.167 370.73 230.737 369.228 231.962 367.581C233.168 365.958 234.77 364.219 236.437 363.074C237.318 362.469 238.119 361.784 238.903 361.064C239.665 360.366 240.085 359.328 240.814 358.583C241.379 358.006 245.092 354.069 245.418 356.711C245.546 357.75 244.486 358.366 243.803 358.929C243.028 359.567 242.231 360.397 241.551 361.142C240.896 361.861 240.125 362.473 239.485 363.2C238.616 364.189 237.146 364.814 236.47 365.964C235.913 366.912 235.07 367.636 234.406 368.501C233.487 369.7 232.451 370.675 231.399 371.751C230.567 372.604 229.328 373.252 228.699 374.256C228.174 375.094 227.357 375.39 226.59 375.892C226.256 376.11 225.866 376.212 225.558 376.529C225.455 376.634 225.279 376.751 225.205 376.614C225.164 376.536 224.961 376.682 224.988 376.766C225.083 377.063 224.879 376.063 224.859 375.97" stroke="#00ADB5" stroke-opacity="0.5" stroke-linecap="round" stroke-linejoin="round"/>
<path d="M222.827 376.642C223.036 376.774 224.32 377.96 224.402 377.112C224.427 376.855 224.798 376.459 224.939 376.209C225.046 376.019 224.236 376.133 224.103 376.273C223.93 376.456 223.616 376.588 224.099 376.649C224.471 376.695 224.777 376.563 225.081 376.37C225.168 376.315 226.246 376.593 225.274 376.472C224.757 376.408 224.252 376.374 223.754 376.326C223.324 376.285 224.207 376.254 224.332 376.266C224.433 376.276 223.558 376.688 223.431 376.514C223.4 376.471 223.35 376.358 223.496 376.301" stroke="#00ADB5" stroke-opacity="0.5" stroke-linecap="round" stroke-linejoin="round"/>
<path d="M205.002 370.643C205.064 370.684 207.009 371.954 207.03 371.822C207.055 371.663 206.954 371.512 207.049 371.361C207.462 370.701 207.879 371.077 208.45 371.403C208.895 371.657 208.412 369.27 209.721 370.384C210.398 370.96 210.599 370.898 210.561 370.037C210.533 369.386 210.755 369.405 211.302 369.527C211.673 369.609 211.935 369.717 212.184 369.38C212.486 368.971 212.803 368.752 213.318 368.991C213.744 369.189 214.094 369.663 214.451 369.136C214.609 368.903 214.567 368.159 214.975 368.34C215.231 368.454 215.546 368.833 215.858 368.753C216.094 368.693 216.338 368.002 216.586 368.139C216.844 368.281 217.07 368.82 217.423 368.73C217.593 368.687 217.949 368.179 217.62 368.213" stroke="#00ADB5" stroke-opacity="0.5" stroke-linecap="round" stroke-linejoin="round"/>
<path d="M213.186 370.39C213.841 371.036 216.206 374.381 217.209 372.15C217.389 371.75 217.49 370.934 217.817 371.649C218.086 372.238 218.535 372.672 219.114 372.195C219.498 371.879 219.711 371.299 220.23 371.164C220.705 371.04 220.959 371.937 221.39 371.469C221.737 371.092 221.655 370.378 221.227 370.09C221.086 369.996 221.018 370.268 220.947 370.327" stroke="#00ADB5" stroke-opacity="0.5" stroke-linecap="round" stroke-linejoin="round"/>
<path d="M219.664 367.426C220.789 367.342 222.221 367.089 222.968 368.162C223.315 368.659 223.221 369.242 222.913 369.738C222.688 370.101 222.162 370.242 221.875 369.837C221.639 369.506 222.235 369.054 222.448 368.886C223.181 368.311 224.077 369.432 224.221 370.147C224.34 370.745 222.623 371.937 222.871 371.38" stroke="#00ADB5" stroke-opacity="0.5" stroke-linecap="round" stroke-linejoin="round"/>
<path d="M238.11 371.169C238.45 371.088 240.632 370.61 240.117 371.697C239.853 372.254 239.026 372.487 238.484 372.626C238.228 372.692 237.591 372.615 238.04 372.294C238.43 372.017 238.951 371.919 239.419 372.003C241.244 372.329 238.468 374.195 237.911 374.436C236.83 374.903 235.377 375.365 234.368 374.571" stroke="#00ADB5" stroke-opacity="0.5" stroke-linecap="round" stroke-linejoin="round"/>
<path d="M227.141 366.699C227.509 367.451 227.965 368.215 228.266 368.997C228.37 369.266 227.878 368.555 227.772 368.287C227.744 368.216 227.578 367.44 227.554 367.443C227.269 367.478 227.08 368.75 226.982 368.979C226.517 370.061 225.676 369.548 224.818 369.382C223.78 369.18 223.212 370.168 222.569 370.772C222.055 371.256 221.857 371.4 222.111 372.059C222.316 372.592 222.374 373.096 221.97 373.521C221.654 373.853 221.281 374.046 220.913 374.31C220.577 374.552 221.026 374.55 220.984 374.381C220.868 373.921 219.877 373.919 219.554 373.909C218.353 373.873 217.166 373.457 215.987 373.418C215.361 373.397 214.742 373.688 214.116 373.72C213.481 373.752 214.256 374.376 214.476 374.555C214.854 374.863 213.74 373.906 213.322 373.656C212.619 373.237 211.966 372.902 211.659 372.094C211.351 371.285 211.066 370.726 210.475 370.097C210.272 369.88 210.274 369.58 210.408 369.325C210.719 368.735 211.325 368.289 211.911 368.01" stroke="#00ADB5" stroke-opacity="0.5" stroke-linecap="round" stroke-linejoin="round"/>
<path d="M226.805 368.981C225.464 367.84 224.32 367.294 222.652 366.903C222.066 366.766 221.472 366.294 221.128 365.802C220.824 365.365 221.008 365.491 220.55 366C219.924 366.696 219.578 365.984 218.851 366.113C217.738 366.311 216.71 367.229 215.592 367.31C215.286 367.332 215.407 366.835 215.009 367.016C214.34 367.321 213.822 367.62 213.069 367.665C212.614 367.692 211.736 367.906 211.752 368.458" stroke="#00ADB5" stroke-opacity="0.5" stroke-linecap="round" stroke-linejoin="round"/>
<path d="M236.552 369.92C237.926 370.187 239.333 370.305 240.7 370.586C241.181 370.685 241.41 370.905 241.722 371.257C242.003 371.574 242.419 372.296 242.858 372.376C243.491 372.49 243.847 372.257 244.461 372.128C244.83 372.05 245.964 372.273 245.588 372.237" stroke="#00ADB5" stroke-opacity="0.5" stroke-linecap="round" stroke-linejoin="round"/>
<path d="M235.371 371.369C233.786 372.207 232.846 373.621 231.164 374.362C230.831 374.508 229.831 374.758 229.848 375.347C229.86 375.774 233.217 374.766 233.733 374.567" stroke="#00ADB5" stroke-opacity="0.5" stroke-linecap="round" stroke-linejoin="round"/>
<path d="M240.801 373.28C241.553 373.962 242.169 374.891 243.212 374.683C243.494 374.626 244.071 374.649 244.273 374.482" stroke="#00ADB5" stroke-opacity="0.5" stroke-linecap="round" stroke-linejoin="round"/>
<path d="M443.582 367.578C439.318 367.979 436.157 368.895 433.175 372.051C431.285 374.052 431.326 377.491 432.207 379.889C433.659 383.841 437.918 386.404 441.927 386.977C446.598 387.644 453.253 386.894 454.753 381.391C455.558 378.441 452.965 375.329 451.86 372.74C450.961 370.634 449.577 367.778 447.361 366.71C446.457 366.274 444.268 366.185 443.496 367.053C443.151 367.441 442.716 367.843 442.449 368.29C442.233 368.653 442.555 367.326 442.549 366.931" stroke="#00ADB5" stroke-opacity="0.5" stroke-linecap="round" stroke-linejoin="round"/>
<path d="M444.353 378.055C443.167 378.527 441.296 378.735 442.163 380.103C442.361 380.414 442.684 380.429 442.984 380.182C443.241 379.97 444.541 378.853 443.696 378.478C441.974 377.714 442.282 381.327 443.706 379.878C444.47 379.1 443.594 378.178 442.687 378.609C441.607 379.124 442.312 380.271 443.202 379.419C443.873 378.777 443.443 378.194 442.723 378.788C442.079 379.319 442.586 380.315 443.241 379.575C443.912 378.817 443.302 378.061 442.518 378.707C441.61 379.456 442.515 379.455 443.155 378.966C443.8 378.473 442.742 378.453 442.36 378.852C441.472 379.776 442.725 379.753 443.008 378.914C443.422 377.681 441.842 380.453 442.686 378.305" stroke="#00ADB5" stroke-opacity="0.5" stroke-linecap="round" stroke-linejoin="round"/>
<path d="M440.146 373.407C441.198 375.112 442.288 376.739 443.146 378.425C443.384 378.893 443.118 379.313 443.273 379.32C443.846 379.343 444.441 379.295 445.049 379.354C446.44 379.488 447.601 378.915 448.941 379.044C450.565 379.201 452.991 379.009 450.437 377.409" stroke="#00ADB5" stroke-opacity="0.5" stroke-linecap="round" stroke-linejoin="round"/>
<path d="M439.391 367.038C439.261 365.731 438.322 362.504 440.596 363.055C441.411 363.253 441.884 364.162 442.318 364.75C443.449 366.278 443.15 367.963 441.089 367.886C440.549 367.866 439.69 368.858 439.157 368.042C438.554 367.119 439.249 367.244 439.469 366.224C439.614 365.557 439.168 365.571 439.043 364.89C438.946 364.368 439.301 363.841 439.459 363.486" stroke="#00ADB5" stroke-opacity="0.5" stroke-linecap="round" stroke-linejoin="round"/>
<path d="M440.348 365.624C440.305 365.947 439.525 368.818 440.632 368.442C441.003 368.317 441.332 368.114 441.512 367.759C441.685 367.416 441.558 367.188 441.434 366.824C441.116 365.886 440.078 364.376 440.24 366.435C440.342 367.734 441.798 367.573 442.026 366.364C442.201 365.44 441.146 364.079 440.295 365.072C439.693 365.774 440.476 367.526 441.139 366.415C441.476 365.852 440.951 364.286 440.17 364.953C439.368 365.638 440.31 367.335 441.091 366.76C441.862 366.192 441.567 364.203 440.725 364.87C439.956 365.48 440.882 366.932 441.519 365.95C442.228 364.855 440.993 363.859 440.467 365.028C439.997 366.07 441.027 367.34 441.432 365.896C441.741 364.797 439.744 364.005 439.615 365.341C439.497 366.572 440.609 366.552 440.717 365.432C440.829 364.264 439.628 364.414 440.024 365.441C440.42 366.468 441.244 364.792 440.745 364.187C440.163 363.482 439.215 364.395 439.913 365.088C440.389 365.561 441.265 363.874 440.427 363.465C439.704 363.111 439.971 364.683 440.265 364.362C440.72 363.863 440.136 363.443 440.552 363.591C440.918 363.721 441.811 364.009 442.036 364.365C442.214 364.645 442.896 366.174 442.86 366.551C442.749 367.703 440.927 368.154 439.944 367.768C439.239 367.491 438.975 367.983 439.246 367.838C439.902 367.486 440.134 366.425 440.095 366.832" stroke="#00ADB5" stroke-opacity="0.5" stroke-linecap="round" stroke-linejoin="round"/>
<path d="M438.202 386.496C437.361 387.911 436.598 389.339 435.641 390.66C435.426 390.958 435.017 391.568 434.941 391.931C434.736 392.91 436.052 389.657 436.3 389.188" stroke="#00ADB5" stroke-opacity="0.5" stroke-linecap="round" stroke-linejoin="round"/>
<path d="M452.173 384.967C453.682 387.301 455.427 389.03 456.536 391.539C456.646 391.786 456.856 391.994 457.021 392.194C457.571 392.862 456.015 390.785 455.514 390.08" stroke="#00ADB5" stroke-opacity="0.5" stroke-linecap="round" stroke-linejoin="round"/>
<path d="M350.59 247.567C351.274 251.724 353.97 267.191 354.432 272.791C355.704 288.213 353.41 267.116 352.754 273.81" stroke="#00ADB5" stroke-opacity="0.5" stroke-width="2" stroke-linecap="round" stroke-linejoin="round"/>
<path d="M342.681 253.419C342.909 247.216 342.349 238.523 350.913 240.237C354.942 241.043 359.191 243.89 361.417 247.365C364.856 252.735 362.042 260.276 357.424 263.842C354.967 265.739 352.678 266.588 349.651 267.104C344.523 267.977 349.135 261.416 350.123 259.591" stroke="#00ADB5" stroke-opacity="0.5" stroke-width="2" stroke-linecap="round" stroke-linejoin="round"/>
<path d="M364.45 263.123C373.087 263.491 381.16 262.561 383.337 272.176C384.602 277.764 386.144 284.554 384.105 290.118C382.262 295.146 379.054 298.091 373.966 295.383C366.695 291.515 367.274 285.605 371.964 280.108C373.69 278.084 379.921 274.298 380.169 271.761" stroke="#00ADB5" stroke-opacity="0.5" stroke-width="2" stroke-linecap="round" stroke-linejoin="round"/>
<path d="M380.906 254.558C380.396 256.79 378.851 272.784 374.507 272.521C373.693 272.472 372.97 272.828 372.227 273.113C369.371 274.208 371.147 273.146 372.3 271.832C374.913 268.855 379.467 270.486 382.213 266.465C385.194 262.099 386.582 259.944 383.287 256.026C380.978 253.281 382.507 249.137 379.923 254.935" stroke="#00ADB5" stroke-opacity="0.5" stroke-width="2" stroke-linecap="round" stroke-linejoin="round"/>
<path d="M394.987 241.264C397.588 249.061 399.686 259.09 404.387 266.111C405.629 267.967 406.563 266.546 406.671 265.204C406.807 263.509 406.494 261.756 406.158 260.106" stroke="#00ADB5" stroke-opacity="0.5" stroke-width="2" stroke-linecap="round" stroke-linejoin="round"/>
<path d="M383.472 259.778C388.941 258.213 402.082 257.36 404.92 250.992" stroke="#00ADB5" stroke-opacity="0.5" stroke-width="2" stroke-linecap="round" stroke-linejoin="round"/>
<path d="M401.527 242.141C420.52 284.29 400.972 254.068 413.284 247.88C420.758 244.123 419.333 265.083 422.156 256.229" stroke="#00ADB5" stroke-opacity="0.5" stroke-width="2" stroke-linecap="round" stroke-linejoin="round"/>
<path d="M422.057 242.73C422.647 245.288 423.856 261.911 430.009 258.733C432.761 257.312 436.086 254.417 436.887 251.334C437.746 248.025 436.469 239.288 431.631 239.75C429.423 239.96 425.788 239.713 424.176 241.636C422.617 243.496 421.306 248.075 423.418 243.337" stroke="#00ADB5" stroke-opacity="0.5" stroke-width="2" stroke-linecap="round" stroke-linejoin="round"/>
<path d="M438.621 240.329C445.498 236.794 453.242 236.162 453.285 246.05C453.291 247.291 453.165 248.841 453.619 250.027C454.146 251.402 453.239 246.753 452.038 245.902" stroke="#00ADB5" stroke-opacity="0.5" stroke-width="2" stroke-linecap="round" stroke-linejoin="round"/>
<path d="M437.785 244.033C437.585 249.181 436.186 256.045 438.115 261.078C438.181 261.25 438.629 262.557 438.408 261.843C437.972 260.43 437.826 259.485 436.9 257.909" stroke="#00ADB5" stroke-opacity="0.5" stroke-width="2" stroke-linecap="round" stroke-linejoin="round"/>
<path d="M269.394 274.592C267.696 282.826 266.793 308.594 252.814 305.639C249.9 305.023 247.271 304.273 246.139 301.363C244.953 298.315 243.984 295.669 244.156 292.353C244.368 288.28 246.166 286.522 249.622 285.007C250.834 284.476 248.112 286.837 247.869 287.068C246.269 288.584 251.352 287.037 253.261 286.803" stroke="#00ADB5" stroke-opacity="0.5" stroke-width="2" stroke-linecap="round" stroke-linejoin="round"/>
<path d="M287.152 280.337C279.94 280.317 269.719 280.701 267.705 289.532C266.613 294.322 273.768 295.606 276.739 297.56C281.843 300.916 285.033 310.566 278.608 314.059C274.14 316.488 271.112 314.677 267.004 314.567C262.831 314.455 265.865 313.205 268.363 313.023" stroke="#00ADB5" stroke-opacity="0.5" stroke-width="2" stroke-linecap="round" stroke-linejoin="round"/>
<path d="M347.085 63.9078C345.959 69.5933 345.052 75.3592 343.792 81.018C343.671 81.5625 342.919 83.6855 343.73 81.9886C344.323 80.7479 344.3 79.3933 345.171 78.2465C346.37 76.6669 351.674 70.7208 353.814 71.5799C358.101 73.3018 352.859 81.058 351.37 83.2818C350.856 84.0488 349.5 85.6891 350.028 86.6554C350.731 87.9437 352.677 83.6205 352.755 83.4899" stroke="#00ADB5" stroke-opacity="0.5" stroke-width="2" stroke-linecap="round" stroke-linejoin="round"/>
<path d="M364.15 69.3555C363.38 71.8699 357.768 84.1064 361.799 86.6109C362.936 87.3177 365.686 86.4551 366.6 85.5712C367.552 84.6508 367.252 83.0723 367.272 81.8996" stroke="#00ADB5" stroke-opacity="0.5" stroke-width="2" stroke-linecap="round" stroke-linejoin="round"/>
<path d="M355.415 68.7936C359.926 70.6218 364.613 72.0011 369.09 73.8701C370.147 74.3114 370.54 74.5031 371.033 75.5311C371.8 77.1303 369.51 75.5164 369.135 75.0183" stroke="#00ADB5" stroke-opacity="0.5" stroke-width="2" stroke-linecap="round" stroke-linejoin="round"/>
<path d="M375.552 79.789C374.176 82.9042 372.86 86.0661 371.339 89.1156C371.036 89.7219 370.978 89.9486 370.894 89.4552C370.813 88.9799 370.717 88.6952 370.97 88.2258C372.313 85.7311 375.224 82.2401 377.771 81.0196C380.52 79.7016 378.595 84.8326 378.143 85.8653C377.636 87.0251 376.264 90.2058 377.77 87.1454C378.667 85.324 380.76 80.7844 383.459 81.7343C385.093 82.3096 384.489 84.5364 384.077 85.7051C383.319 87.8602 382.565 90.0008 381.804 92.1631C380.692 95.3228 381.293 93.6165 382.106 91.3076" stroke="#00ADB5" stroke-opacity="0.5" stroke-width="2" stroke-linecap="round" stroke-linejoin="round"/>
<path d="M396.873 74.7309C394.627 80.5706 392.004 86.3566 389.983 92.2809C389.746 92.9756 389.124 95.573 390.226 95.9955C391.273 96.3971 395.768 94.2532 394.815 93.2682" stroke="#00ADB5" stroke-opacity="0.5" stroke-width="2" stroke-linecap="round" stroke-linejoin="round"/>
<path d="M84.4996 291.675C79.833 298.79 75.1783 305.912 70.5015 313.02C69.1685 315.046 66.3143 321.363 66.2697 318.938C66.2093 315.65 68.6345 311.289 69.7709 308.323C71.3748 304.137 74.6248 295.778 80.6587 296.391C85.2134 296.854 89.693 304.03 89.9982 308.267C90.2137 311.259 91.9848 308.075 94.0396 307.376" stroke="#00ADB5" stroke-opacity="0.5" stroke-width="2" stroke-linecap="round" stroke-linejoin="round"/>
<path d="M94.416 316.863C96.4734 323.283 99.3778 334.083 107.977 329.123C111.929 326.844 110.526 322.158 107.013 320.375C98.4051 316.004 86.189 324.719 83.1823 332.56C80.1762 340.399 88.7438 343.717 94.7244 345.095C98.0337 345.858 97.5578 342.921 100.538 342.201" stroke="#00ADB5" stroke-opacity="0.5" stroke-width="2" stroke-linecap="round" stroke-linejoin="round"/>
<path d="M114.643 340.326C107.973 336.754 99.0154 333.281 94.244 341.785C91.9442 345.884 100.344 347.199 102.861 347.323C107.668 347.558 119.392 337.506 115.496 340.332C112.077 342.813 108.572 345.792 106.881 349.778C105.788 352.353 106.184 358.312 109.653 354.557" stroke="#00ADB5" stroke-opacity="0.5" stroke-width="2" stroke-linecap="round" stroke-linejoin="round"/>
<path d="M141.133 348.484C130.953 348.48 118.95 347.836 114.281 358.824C111.985 364.225 115.739 368.496 120.555 370.61C123.92 372.087 127.701 369.948 130.052 367.634" stroke="#00ADB5" stroke-opacity="0.5" stroke-width="2" stroke-linecap="round" stroke-linejoin="round"/>
<path d="M150.145 350.903C149.528 351.522 122.074 376.21 133.897 377.56C137.171 377.933 140.72 376.35 143.185 374.422" stroke="#00ADB5" stroke-opacity="0.5" stroke-width="2" stroke-linecap="round" stroke-linejoin="round"/>
<path d="M128.626 353.804C133.08 357.553 137.448 361.489 142.435 364.536C143.731 365.327 145.965 365.86 146.769 367.32C147.22 368.14 146.57 366.233 146.504 365.958" stroke="#00ADB5" stroke-opacity="0.5" stroke-width="2" stroke-linecap="round" stroke-linejoin="round"/>
<path d="M96.2919 131.865C99.636 139.097 110.426 160.295 105.845 153.776C102.916 149.609 100.902 144.26 99.249 139.505C97.5141 134.516 96.2741 125.791 104.597 127.029C111.74 128.092 113.9 135.699 114.584 141.83C114.886 144.535 114.83 146.607 115.787 149.133C116.766 151.716 117.748 142.223 118.447 139.803" stroke="#00ADB5" stroke-opacity="0.5" stroke-width="2" stroke-linecap="round" stroke-linejoin="round"/>
<path d="M123.497 120.432C123.621 121.489 124.802 145.497 130.263 141.428C132.562 139.714 133.482 135.033 134.003 132.47C135.631 124.46 132.309 123.132 126.793 120.872C124.162 119.795 123.603 119.778 122.59 122.496C120.51 128.078 123.074 126.7 126.467 123.812" stroke="#00ADB5" stroke-opacity="0.5" stroke-width="2" stroke-linecap="round" stroke-linejoin="round"/>
<path d="M145.98 115.856C142.737 120.29 138.645 125.48 140.054 131.429C140.638 133.897 142.593 133.448 144.049 132.231C146.347 130.31 147.775 126.926 147.939 123.999C148.254 118.389 145.214 113.27 141.923 108.946C141.467 108.346 137.196 104.075 137.788 107.446C138.852 113.501 142.847 119.611 145.518 125.042C149.92 133.992 151.836 130.865 154.943 123.161" stroke="#00ADB5" stroke-opacity="0.5" stroke-width="2" stroke-linecap="round" stroke-linejoin="round"/>
<path d="M155.912 118.288C157.489 120.07 170.215 131.148 171.473 122.53C171.587 121.748 170.61 121.406 170.344 120.705C169.659 118.898 168.36 117.624 167.68 116.646" stroke="#00ADB5" stroke-opacity="0.5" stroke-width="2" stroke-linecap="round" stroke-linejoin="round"/>
<path d="M156.487 124.265C151.76 116.638 144.912 108.522 153.338 102.243C156.888 99.5975 163.436 102.59 162.783 107.519C162.479 109.815 161.444 115.464 158.078 115.747C156.298 115.896 155.602 114.673 157.374 113.229" stroke="#00ADB5" stroke-opacity="0.5" stroke-width="2" stroke-linecap="round" stroke-linejoin="round"/>
<path d="M171.678 95.9831C174.962 98.546 198.474 115.679 184.795 120.861C182.664 121.669 181.098 119.158 180.161 117.549C178.049 113.921 185.617 109.793 186.259 106.227" stroke="#00ADB5" stroke-opacity="0.5" stroke-width="2" stroke-linecap="round" stroke-linejoin="round"/>
<path d="M193.28 86.1095C191.084 87.5764 178.409 96.7809 187.402 99.6625C192.369 101.254 197.651 96.6604 201.75 94.5082C208.353 91.0412 208.911 98.9899 206.779 103.241C205.473 105.844 195.895 113.852 198.96 107.047" stroke="#00ADB5" stroke-opacity="0.5" stroke-width="2" stroke-linecap="round" stroke-linejoin="round"/>
<path d="M225.199 477.205C217.052 480.367 206.183 486.517 213.673 496.788C217.266 501.714 224.883 500.571 230.24 500.558C231.745 500.554 235.721 502.384 234.697 501.281C232.482 498.894 230.726 498.866 230.348 495.16" stroke="#00ADB5" stroke-opacity="0.5" stroke-width="2" stroke-linecap="round" stroke-linejoin="round"/>
<path d="M248.517 476.805C247.966 482.533 247.517 486.628 253.181 489.422C255.627 490.629 257.135 491.665 257.535 494.574C257.987 497.862 255.296 502.302 252.468 503.844C248.973 505.751 244.776 506.13 241.229 504.261C238.192 502.661 241.835 501.466 243.625 500.142" stroke="#00ADB5" stroke-opacity="0.5" stroke-width="2" stroke-linecap="round" stroke-linejoin="round"/>
<path d="M274.809 472.987C273.393 476.883 267.717 487.119 271.454 491.652C272.962 493.482 276.284 492.866 278.297 493.546C280.299 494.221 281.905 495.959 283.011 497.703C284.761 500.464 282.484 504.176 280.001 505.761C276.148 508.22 271.148 506.496 266.977 506.094C264.7 505.875 266.271 505.864 267.536 504.561" stroke="#00ADB5" stroke-opacity="0.5" stroke-width="2" stroke-linecap="round" stroke-linejoin="round"/>
<path d="M270.559 422.402C274.746 421.25 282.473 419.519 286.645 417.132C291.049 414.612 286.813 413.359 284.551 413.844C280.72 414.667 278.1 418.344 276.51 421.653C272.323 430.363 281.892 441.586 290.862 441.405C299.152 441.238 300.681 437.335 302.505 431.298" stroke="#00ADB5" stroke-opacity="0.5" stroke-width="2" stroke-linecap="round" stroke-linejoin="round"/>
<path d="M308.757 421.319C307.694 422.726 297.24 439.849 295.64 431.166" stroke="#00ADB5" stroke-opacity="0.5" stroke-width="2" stroke-linecap="round" stroke-linejoin="round"/>
<path d="M292.456 420.278C295.662 425.553 302.862 444.002 311.828 444.365C313.129 444.418 311.893 439.272 311.86 438.548" stroke="#00ADB5" stroke-opacity="0.5" stroke-width="2" stroke-linecap="round" stroke-linejoin="round"/>
<path d="M316.57 422.6C317.456 434.708 318.062 471.102 316.884 459.019C316.276 452.789 308.537 418.647 318.022 420.947C322.136 421.945 332.196 429.055 328.869 434.366C326.998 437.352 317.171 437.512 321.649 435.787" stroke="#00ADB5" stroke-opacity="0.5" stroke-width="2" stroke-linecap="round" stroke-linejoin="round"/>
<path d="M335.682 432.906C336.328 439.77 336.927 446.625 337.403 453.5C337.484 454.677 337.317 453.697 337.037 453.024C335.28 448.796 333.034 441.348 333.569 436.847C334.075 432.582 340.236 430.233 343.021 433.612" stroke="#00ADB5" stroke-opacity="0.5" stroke-width="2" stroke-linecap="round" stroke-linejoin="round"/>
<path d="M351.7 442.384C351.089 447.305 353.005 464.92 361.986 460.717C363.273 460.114 366.446 458.645 366.689 457.054C366.818 456.206 365.285 455.861 364.693 455.804C363.135 455.654 362.932 453.685 362.375 452.406" stroke="#00ADB5" stroke-opacity="0.5" stroke-width="2" stroke-linecap="round" stroke-linejoin="round"/>
<path d="M348.927 443.704C353.976 439.397 359.771 433.35 363.033 442.212C363.988 444.806 363.285 447.754 362.064 450.143C360.091 454.002 354.258 455.037 356.336 449.18" stroke="#00ADB5" stroke-opacity="0.5" stroke-width="2" stroke-linecap="round" stroke-linejoin="round"/>
<path d="M378.144 436.994C381.184 443.081 394.224 459.957 384.012 466.1C380.745 468.065 378.755 467.863 375.332 467.41C370.501 466.77 373.181 465.788 375.197 462.106" stroke="#00ADB5" stroke-opacity="0.5" stroke-width="2" stroke-linecap="round" stroke-linejoin="round"/>
<path d="M400.362 437.017C399.151 438.226 383.829 450.428 392.21 452.693C395.3 453.527 398.369 451.903 401.069 454.104C405.939 458.075 404.254 462.659 399.182 465.151C396.648 466.395 393.903 466.912 391.276 467.887C389.792 468.438 391.495 466.592 391.769 465.818" stroke="#00ADB5" stroke-opacity="0.5" stroke-width="2" stroke-linecap="round" stroke-linejoin="round"/>
<path d="M388.861 430.09C387.558 430.867 373.751 436.878 375.185 441.471C376.993 447.265 378.428 440.485 379.091 438.144" stroke="#00ADB5" stroke-opacity="0.5" stroke-width="2" stroke-linecap="round" stroke-linejoin="round"/>
<path d="M83.1798 227.587C86.0446 222.307 85.5503 217.418 86.0996 211.713C86.2065 210.603 86.3307 207.203 87.5552 206.71C89.4865 205.933 91.2667 205.461 93.4369 205.67C94.8797 205.809 96.3253 205.991 97.7715 206.088C99.2179 206.185 100.672 205.733 102.115 205.696C104.799 205.626 107.516 206.344 110.136 206.597C112.216 206.797 114.343 207.274 116.344 207.467C116.699 207.501 118.131 207.81 118.345 208.039C118.998 208.737 118.696 209.728 119.206 210.333" stroke="#00ADB5" stroke-opacity="0.5" stroke-linecap="round" stroke-linejoin="round"/>
<path d="M119.022 210.808C118.956 212.441 118.771 214.724 119.286 216.376C119.62 217.446 119.143 218.782 119.125 219.886C119.091 222.006 118.58 224.025 118.384 226.066C118.12 228.803 117.997 231.518 117.735 234.24C117.51 236.577 115.265 235.966 113.491 235.464C111.959 235.03 109.811 235.397 108.184 235.261C105.044 234.997 101.871 234.93 98.7298 234.627C96.1066 234.375 94.232 233.425 91.9046 232.277C90.6618 231.663 89.8717 231.696 88.4861 231.563C87.1738 231.436 86.1144 231.127 84.7593 231.412C83.9665 231.578 82.6082 231.238 82.2463 230.407C81.8124 229.412 82.8954 229.103 82.9699 228.329C83.0324 227.68 83.1296 225.815 83.1799 227.587" stroke="#00ADB5" stroke-opacity="0.5" stroke-linecap="round" stroke-linejoin="round"/>
<path d="M100.418 212.619C100.418 212.619 100.941 212.947 101.437 213.549C101.947 214.014 103.122 213.919 104.094 214.012C104.606 214.062 105.184 213.715 105.663 213.555C106.631 213.232 106.003 213.955 105.737 214.379C105.444 214.847 105.637 215.79 106.053 216.141C106.739 216.721 107.508 216.351 108.262 216.061C108.575 215.941 108.5 215.864 108.572 216.076C108.671 216.363 108.61 216.761 108.581 217.062C108.515 217.746 108.361 218.879 107.937 219.44C107.378 220.178 106.842 220.639 106.01 221.141C105.188 221.637 104.079 222.533 103.06 222.435C101.068 222.243 98.9959 221.605 98.1858 219.571C97.8424 218.709 97.1322 217.962 97.2226 217.023C97.298 216.239 97.1292 215.275 97.4606 214.552C97.8622 213.674 98.7293 212.888 98.4547 212.861C98.5909 212.915 99.8952 212.292 100.418 212.619Z" stroke="#00ADB5" stroke-opacity="0.5" stroke-linecap="round" stroke-linejoin="round"/>
<path d="M102.73 212.357C103.53 212.145 105.351 211.716 105.857 210.822C106.247 210.131 105.199 209.893 104.635 209.838C103.95 209.772 103.048 210.64 102.808 211.221C102.675 211.544 102.546 211.875 102.413 212.203C102.35 212.361 102.402 212.485 102.421 212.639C102.436 212.756 103.536 212.307 103.512 212.146" stroke="#00ADB5" stroke-opacity="0.5" stroke-linecap="round" stroke-linejoin="round"/>
<path d="M115.115 229.135L84.6534 226.876C81.431 226.637 78.6081 229.016 78.2984 232.233C77.9838 235.5 80.3773 238.403 83.6443 238.718L114.043 241.645C117.342 241.962 120.273 239.546 120.591 236.247L120.644 235.694C120.966 232.344 118.471 229.384 115.115 229.135Z" stroke="#00ADB5" stroke-opacity="0.5"/>
<path d="M91.3278 227.351C91.7157 228.102 92.0276 228.988 92.4878 229.693C92.7193 230.047 92.6835 229.976 93.2119 229.836C94.0939 229.603 95.0371 229.922 95.9256 230.007C96.7056 230.082 97.6517 229.762 98.3902 230.04C99.2458 230.361 100.325 230.009 101.191 230.072C102.235 230.147 103.219 230.341 104.255 230.44C104.879 230.5 105.523 230.194 106.101 230.249C106.437 230.281 107.367 230.639 107.451 230.027C107.492 229.728 107.654 229.45 107.683 229.147C107.723 228.737 107.46 228.891 107.067 228.645" stroke="#00ADB5" stroke-opacity="0.5" stroke-linecap="round" stroke-linejoin="round"/>
<path d="M254.512 91.5955C255.144 90.933 256.352 89.7107 254.861 89.3305C254.524 89.2445 254.223 89.0125 253.873 89.1324C252.793 89.5018 251.732 90.4417 251.614 91.6693C251.425 93.6301 253.535 94.2618 255.099 94.3868C257.739 94.5978 258.788 92.107 259.919 90.1165C261.062 88.1058 262.306 86.1393 263.482 84.147C264.813 81.8928 266.805 80.1866 268.176 77.958C268.763 77.0023 269.49 76.1808 270.21 75.326C271.328 73.9999 272.165 72.6341 273.018 71.1266C273.718 69.8898 274.47 68.7712 275.293 67.6159C275.626 67.1488 275.592 66.3807 276.086 66.962C276.462 67.4034 277.095 67.7305 277.642 67.8862C280.035 68.5668 282.23 69.2546 284.757 69.2967C287.314 69.3392 289.884 69.2199 292.428 68.9767C293.293 68.894 292.912 69.0571 292.462 69.5338C291.699 70.3423 291.03 71.2125 290.294 72.0353C289.335 73.1083 288.902 74.4702 288.273 75.7419C287.581 77.1399 286.791 78.4628 286.122 79.887C284.829 82.6394 283.092 85.0958 281.023 87.3112C279.823 88.5951 278.273 90.8899 276.287 90.5996C273.213 90.1505 275.884 84.2718 277.474 83.2251C278.33 82.6616 279.132 83.4342 279.147 84.3026C279.166 85.4958 278.606 87.0744 277.404 87.5411C276.137 88.0335 275.217 87.8712 276.298 86.3907C276.953 85.4949 277.187 86.5726 277.462 86.1303" stroke="#00ADB5" stroke-opacity="0.5" stroke-width="2" stroke-linecap="round" stroke-linejoin="round"/>
<path d="M466.871 325.79C467.504 325.127 468.711 323.905 467.22 323.525C466.883 323.439 466.583 323.207 466.232 323.327C465.152 323.696 464.091 324.636 463.973 325.864C463.784 327.824 465.894 328.456 467.459 328.581C470.098 328.792 471.147 326.301 472.279 324.311C473.421 322.3 474.665 320.333 475.841 318.341C477.173 316.087 479.164 314.381 480.535 312.152C481.123 311.197 481.849 310.375 482.569 309.52C483.687 308.194 484.524 306.828 485.378 305.321C486.078 304.084 486.83 302.965 487.653 301.81C487.985 301.343 487.951 300.575 488.445 301.156C488.821 301.598 489.454 301.925 490.001 302.08C492.394 302.761 494.589 303.449 497.116 303.491C499.673 303.533 502.244 303.414 504.787 303.171C505.652 303.088 505.271 303.251 504.821 303.728C504.058 304.536 503.389 305.407 502.653 306.23C501.694 307.303 501.261 308.664 500.632 309.936C499.941 311.334 499.15 312.657 498.481 314.081C497.188 316.834 495.451 319.29 493.382 321.505C492.182 322.789 490.633 325.084 488.646 324.794C485.573 324.345 488.243 318.466 489.833 317.419C490.689 316.856 491.492 317.628 491.506 318.497C491.525 319.69 490.965 321.269 489.763 321.735C488.496 322.228 487.576 322.065 488.658 320.585C489.312 319.689 489.546 320.767 489.821 320.325" stroke="#00ADB5" stroke-opacity="0.5" stroke-width="2" stroke-linecap="round" stroke-linejoin="round"/>
<path d="M453.879 199.86C451.746 194.928 452.027 193.605 453.07 188.948C453.645 186.383 454.013 183.859 454.916 181.368C456.53 176.914 457.503 170.801 454.18 166.77C447.641 158.838 433.176 167.83 436.372 177.403C437.588 181.046 440.022 183.891 441.644 187.373C442.294 188.77 442.591 190.244 443.483 191.576C444.338 192.854 445.399 194.444 445.258 195.915C445.138 197.157 444.612 198.732 445.385 199.915C446.453 201.548 446.097 200.727 447.893 200.9C449.128 201.019 451.044 200.212 452.117 199.511C452.883 199.011 453.106 200.693 453.259 199.108C453.39 197.748 452.843 198.838 453.738 198.924" stroke="#00ADB5" stroke-opacity="0.5" stroke-linecap="round" stroke-linejoin="round"/>
<path d="M447.743 203.655C450.259 203.161 457.185 202.185 455.424 204.048C453.3 206.297 452.609 205.001 450.239 205.293C449.028 205.442 447.519 208.992 448.825 209.196C450.691 209.487 452.178 207.082 454.088 207.266C455.828 207.434 455.483 209.711 454.362 210.421C452.881 211.36 451.409 210.056 450.321 211.635C448.603 214.13 452.645 214.087 453.84 213.577C455.044 213.063 456.226 212.193 457.122 211.713" stroke="#00ADB5" stroke-opacity="0.5" stroke-linecap="round" stroke-linejoin="round"/>
<path d="M453.95 199.117C453.9 199.313 453.738 200.655 453.201 200.603C452.912 200.575 452.796 200.387 452.518 200.508C452.191 200.651 451.861 201.029 451.541 201.238C451.259 201.422 450.484 201.322 450.31 201.568C450.025 201.972 449.508 202.157 449.041 202.164C448.436 202.173 448.185 202.452 447.561 202.249C447.371 202.187 447.363 202.06 447.181 202.043C446.899 202.016 446.764 202.139 446.574 201.882C446.364 201.598 445.991 201.438 445.916 201.03C445.814 200.475 445.275 200.137 446.08 200.552" stroke="#00ADB5" stroke-opacity="0.5" stroke-linecap="round" stroke-linejoin="round"/>
<path d="M445.096 175.416C446.119 175.52 446.958 175.667 447.202 176.785C447.368 177.546 447.302 178.272 447.229 179.038C447.157 179.783 446.642 180.338 446.574 181.039C446.485 181.967 447.241 181.886 447.841 182.229C448.408 182.553 448.816 182.817 449.08 183.445C449.342 184.066 448.991 185.185 448.886 185.824C448.796 186.373 448.42 187.522 448.758 188.026C448.941 188.3 450.038 188.801 449.349 188.173" stroke="#00ADB5" stroke-opacity="0.5" stroke-linecap="round" stroke-linejoin="round"/>
<path d="M435.467 184.932C434.596 185.397 433.717 185.773 432.768 186.028C432.371 186.135 431.84 186.343 431.984 185.751" stroke="#00ADB5" stroke-opacity="0.5" stroke-linecap="round" stroke-linejoin="round"/>
<path d="M433.254 176.757C431.769 176.966 430.29 177.221 428.813 177.47C428.568 177.511 429.175 176.959 429.197 176.943" stroke="#00ADB5" stroke-opacity="0.5" stroke-linecap="round" stroke-linejoin="round"/>
<path d="M433.575 169.229C432.093 168.865 430.62 168.45 429.151 168.04C428.474 167.851 428.174 167.913 428.619 167.367" stroke="#00ADB5" stroke-opacity="0.5" stroke-linecap="round" stroke-linejoin="round"/>
<path d="M442.458 162.064C441.291 161.741 440.281 161.44 439.259 160.8C438.781 160.501 438.326 160.152 437.82 159.899C437.219 159.598 437.199 159.67 437.934 159.32" stroke="#00ADB5" stroke-opacity="0.5" stroke-linecap="round" stroke-linejoin="round"/>
<path d="M453.302 157.915C453.358 159.145 453.231 159.866 452.634 160.918C452.313 161.486 452.017 162.213 451.824 162.841C451.758 163.057 451.721 163.18 451.556 163.331C451.494 163.387 451.77 162.671 451.816 162.561" stroke="#00ADB5" stroke-opacity="0.5" stroke-linecap="round" stroke-linejoin="round"/>
<path d="M461.581 163.617C461.079 164.844 460.422 166.004 459.975 167.238C459.75 167.863 459.848 167.911 460.188 167.291" stroke="#00ADB5" stroke-opacity="0.5" stroke-linecap="round" stroke-linejoin="round"/>
<path d="M464.364 173.059C462.957 174.058 461.758 175.351 460.616 176.634C460.473 176.795 460.321 176.843 460.167 176.969C459.817 177.257 460.437 176.59 460.514 176.496" stroke="#00ADB5" stroke-opacity="0.5" stroke-linecap="round" stroke-linejoin="round"/>
<path d="M162.228 259.707C163.304 268.453 164.619 277.24 165.039 286.053C165.274 290.976 164.406 283.821 164.31 282.812C164.101 280.628 163.808 278.683 164.019 276.49C164.444 272.077 164.756 267.604 164.854 263.154C164.923 260.04 162.011 250.466 166.072 258.61C170.214 266.915 172.837 275.908 175.337 284.773C175.681 285.995 176.208 287.172 176.601 288.35C176.816 288.993 172.161 283.476 170.284 282.204" stroke="#00ADB5" stroke-opacity="0.5" stroke-width="2" stroke-linecap="round" stroke-linejoin="round"/>
<path d="M157.446 278.413C163.143 276.752 175.637 273.787 179.746 267.972C181.468 265.536 181.066 266.7 176.851 267.078" stroke="#00ADB5" stroke-opacity="0.5" stroke-width="2" stroke-linecap="round" stroke-linejoin="round"/>
<path d="M176.667 251.301C180.094 260.091 182.301 269.31 182.568 278.726C182.593 279.598 182.702 280.564 183.25 281.229C183.352 281.352 181.595 277.134 181.103 276.006" stroke="#00ADB5" stroke-opacity="0.5" stroke-width="2" stroke-linecap="round" stroke-linejoin="round"/>
<path d="M176.707 250.88C179.801 253.162 191.16 261.587 182.852 265.455C182.123 265.795 181.278 266.092 180.722 266.694C179.544 267.968 179.379 268.359 180.309 266.559" stroke="#00ADB5" stroke-opacity="0.5" stroke-width="2" stroke-linecap="round" stroke-linejoin="round"/>
<path d="M188.086 247.716C188.572 257.325 189.969 267.967 189.039 277.622C188.834 279.753 188.858 275.771 188.48 274.586" stroke="#00ADB5" stroke-opacity="0.5" stroke-width="2" stroke-linecap="round" stroke-linejoin="round"/>
<path d="M196.166 265.531C197.818 272.66 198.618 276.845 191.633 278.203C189.247 278.667 192.375 275.567 193.01 275.212C195.177 274.001 197.635 269.669 195.582 267.178C194.765 266.187 192.491 267.12 191.959 265.977C191.174 264.292 193.567 261.476 194.916 260.82C198.796 258.933 198.031 262.044 196.613 260.889" stroke="#00ADB5" stroke-opacity="0.5" stroke-width="2" stroke-linecap="round" stroke-linejoin="round"/>
<path d="M335.271 149.582C335.961 157.077 339.651 179.123 336.946 172.099C336.654 171.342 336.412 170.702 336.461 169.879C336.64 166.838 336.719 163.647 335.95 160.67C335.307 158.18 335.73 155.703 335.976 153.143C336.026 152.63 335.543 148.51 335.629 148.49C336.538 148.282 339.747 153.048 340.331 153.872C343.283 158.043 346.216 162.791 348.156 167.531C349.155 169.971 349.443 170.839 346.491 170.922" stroke="#00ADB5" stroke-opacity="0.5" stroke-width="2" stroke-linecap="round" stroke-linejoin="round"/>
<path d="M333.492 164.431C336.899 163.096 340.12 162.077 343.583 161.211" stroke="#00ADB5" stroke-opacity="0.5" stroke-width="2" stroke-linecap="round" stroke-linejoin="round"/>
<path d="M344.237 150.794C347.083 156.096 349.74 161.702 353.168 166.675C353.657 167.384 354.702 168.687 354.85 167.147C355.052 165.046 354.097 162.762 353.761 160.716C353.224 157.443 352.746 154.162 352.341 150.876C351.95 147.704 352.325 148.91 353.266 151.353C354.825 155.401 356.519 159.115 358.878 162.8C360.467 165.283 360.779 164.015 360.974 161.993C361.328 158.318 359.825 155.124 358.822 151.694C357.75 148.03 358.309 143.223 357.012 139.856C356.508 138.547 356.04 142.498 355.733 143.867" stroke="#00ADB5" stroke-opacity="0.5" stroke-width="2" stroke-linecap="round" stroke-linejoin="round"/>
<path d="M364.127 140.134C364.176 140.549 364.494 150.75 366.88 149.831C367.926 149.428 368.317 147.926 369.393 147.511C371.138 146.839 372.794 148.486 373.308 149.984C374.668 153.945 372.259 158.149 368.913 160.157C364.278 162.938 366.314 157.323 366.467 155.729" stroke="#00ADB5" stroke-opacity="0.5" stroke-width="2" stroke-linecap="round" stroke-linejoin="round"/>
<path d="M366.27 139.642C365.483 141.284 363.59 149.077 363.544 145.978C363.516 144.064 364.028 142.661 364.406 140.86C365.302 136.587 368.272 140.379 367.129 137.978" stroke="#00ADB5" stroke-opacity="0.5" stroke-width="2" stroke-linecap="round" stroke-linejoin="round"/>
<path d="M321.298 364.756C321.203 364.533 317.038 355.453 317.494 355.248C318.126 354.963 319.212 355.404 319.943 355.207C322.102 354.627 323.935 353.175 325.778 352.006C327.717 350.777 329.128 362.022 329.454 364.393C329.848 367.262 331.219 371.157 327.827 372.464C324.768 373.642 320.972 372.832 317.793 372.455C312.607 371.839 309.837 362.962 309.64 358.659C309.496 355.525 306.17 345.191 310.957 343.649C312.239 343.236 314.294 343.8 315.629 343.928C317.539 344.112 319.315 343.135 321.257 343.322C324.347 343.62 324.91 347.57 322.621 343.071" stroke="#00ADB5" stroke-opacity="0.5" stroke-width="2" stroke-linecap="round" stroke-linejoin="round"/>
<path d="M331.807 347.017C332.157 349.031 332.841 360.095 337.663 357.743C338.58 357.295 339.335 356.068 339.738 355.179C340.813 352.806 341.187 350.773 339.489 348.713C338.217 347.17 335.775 344.034 333.737 343.759C328.683 343.075 332.611 349.188 332.077 348.191" stroke="#00ADB5" stroke-opacity="0.5" stroke-width="2" stroke-linecap="round" stroke-linejoin="round"/>
<path d="M334.245 329.649C337.42 335.93 342.444 342.986 344.061 350.025C344.267 350.923 344.22 351.515 344.684 352.381C345.385 353.688 345.6 355.507 346.555 353.709C347.938 351.106 350.726 348.946 352.936 347.053C355.663 344.717 355.929 345.513 351.51 345.087" stroke="#00ADB5" stroke-opacity="0.5" stroke-width="2" stroke-linecap="round" stroke-linejoin="round"/>
<path d="M360.59 330.272C360.017 331.289 351.513 344.737 358.719 342.189C360.153 341.682 361.649 340.822 361.625 339.173C361.601 337.583 360.407 336.221 359.857 334.793C359.546 333.987 358.365 330.13 358.795 331.247C360.074 334.567 361.657 340.412 363.787 342.995C366.267 346.004 368.189 343.278 365.634 341.472" stroke="#00ADB5" stroke-opacity="0.5" stroke-width="2" stroke-linecap="round" stroke-linejoin="round"/>
<path d="M364.614 332.19C373.556 349.947 362.011 329.878 365.401 326.887C368.683 323.993 371.61 330.439 372.537 332.485C374.152 336.05 375.218 344.996 373.08 335.684" stroke="#00ADB5" stroke-opacity="0.5" stroke-width="2" stroke-linecap="round" stroke-linejoin="round"/>
<path d="M379.272 319.06C379.032 319.675 371.838 335.06 376.219 333.988C378.081 333.532 380.027 332.283 381.145 330.742C382.435 328.963 383.201 326.428 382.597 324.27C382.186 322.799 381.739 321.226 381.111 319.832C379.619 316.519 383.521 326.689 384.647 330.144C386.295 335.202 389.755 352.713 378.063 348.176C372.963 346.197 378.685 338.52 378.169 338.47" stroke="#00ADB5" stroke-opacity="0.5" stroke-width="2" stroke-linecap="round" stroke-linejoin="round"/>
<path d="M237.587 226.353C239.521 226.016 241.178 225.649 242.646 224.286C243.225 223.749 243.368 223.005 243.704 222.319C244.14 221.427 243.822 220.203 243.611 219.287C243.443 218.554 244.775 218.28 245.24 218.295C246.038 218.32 246.597 218.884 247.355 219.002C248.266 219.144 249.216 219.532 249.783 220.308C250.167 220.835 250.734 221.005 251.17 221.472C251.585 221.915 251.875 222.646 252.153 223.189C252.958 224.761 253.06 226.513 253.172 228.233C253.226 229.058 253.221 229.949 253.005 230.756C252.748 231.719 252.831 232.677 252.354 233.579C252.024 234.202 251.514 235.019 250.869 235.344C250.207 235.677 249.614 235.762 249.376 236.562C248.878 238.233 249.573 239.982 249.078 241.669C248.639 243.166 246.6 243.205 245.331 243.329C244.454 243.415 242.864 243.528 242.078 242.997C240.615 242.009 239.597 240.852 238.58 239.405C237.679 238.123 237.462 236.354 237.474 234.827C237.485 233.269 237.646 231.59 237.831 230.03C237.954 228.996 238.356 227.983 238.554 226.958C238.716 226.12 238.991 226.078 238.453 227.119" stroke="#00ADB5" stroke-opacity="0.5" stroke-linecap="round" stroke-linejoin="round"/>
<path d="M249.248 219.701C250.042 218.121 250.901 216.548 251.551 214.902C251.844 214.162 251.974 213.362 252.319 212.646C252.72 211.813 252.971 210.852 253.194 209.963C253.355 209.325 253.513 208.184 254.145 207.833C254.606 207.578 254.918 206.921 255.416 206.608C256.055 206.206 256.942 205.86 257.423 205.287C257.895 204.725 258.457 203.522 258.175 202.792C258.019 202.387 258.086 201.972 257.932 201.573C257.732 201.053 257.548 200.629 257.412 200.075C257.293 199.59 256.867 198.603 257.499 198.327C259.047 197.653 259.025 198.947 259.368 200.164C259.545 200.792 259.51 201.535 259.667 202.186C259.775 202.631 260.069 202.345 260.248 202.612C260.517 203.014 260.487 203.481 260.678 203.906C260.965 204.543 260.442 205.727 260.211 206.301C259.781 207.363 259.353 208.319 258.771 209.323C257.274 211.907 255.038 213.989 253.403 216.476C252.78 217.422 252.263 218.386 251.9 219.463C251.694 220.076 251.209 220.631 251.145 221.294C251.087 221.898 250.907 222.193 251.318 221.268" stroke="#00ADB5" stroke-opacity="0.5" stroke-linecap="round" stroke-linejoin="round"/>
<path d="M257.814 199.938C256.72 200 255.539 199.95 254.529 200.339C254.391 200.392 254.613 200.239 254.71 200.237C256.015 200.21 257.535 199.195 258.764 198.748C259.678 198.416 260.964 197.593 261.96 197.689C262.249 197.717 260.924 198.401 260.77 198.514" stroke="#00ADB5" stroke-opacity="0.5" stroke-linecap="round" stroke-linejoin="round"/>
<path d="M256.534 201.694C257.801 201.113 259.963 200.557 260.953 199.472C261.05 199.366 261.127 199.218 261.259 199.159C261.718 198.952 260.921 199.156 260.79 199.2" stroke="#00ADB5" stroke-opacity="0.5" stroke-linecap="round" stroke-linejoin="round"/>
<path d="M257.275 202.876C258.768 202.464 261.446 202.227 262.39 200.72C262.526 200.503 262.267 200.538 262.114 200.523" stroke="#00ADB5" stroke-opacity="0.5" stroke-linecap="round" stroke-linejoin="round"/>
<path d="M258.815 202.854C258.536 204.786 258.366 206.762 257.098 208.317C256.479 209.076 256.052 209.579 255.771 210.51C255.47 211.505 255.166 212.331 254.614 213.213C254.069 214.083 253.461 214.779 252.926 215.613C252.648 216.046 252.031 216.429 252.091 216.985C252.121 217.266 251.961 217.501 251.847 217.75C251.509 218.488 250.949 219.114 250.422 219.729C250.064 220.147 249.991 220.951 250.485 220.162" stroke="#00ADB5" stroke-opacity="0.5" stroke-linecap="round" stroke-linejoin="round"/>
<path d="M250.451 217.852C251.199 218.092 252.311 218.715 253.094 218.79C253.109 218.792 252.508 217.905 252.422 217.786" stroke="#00ADB5" stroke-opacity="0.5" stroke-linecap="round" stroke-linejoin="round"/>
<path d="M251.293 214.431C252.329 214.996 253.367 215.557 254.394 216.139C254.634 216.275 254.618 216.291 254.54 216.196C254.372 215.992 254.234 215.776 254.089 215.554" stroke="#00ADB5" stroke-opacity="0.5" stroke-linecap="round" stroke-linejoin="round"/>
<path d="M252.529 212.243C253.791 212.773 255.048 213.334 256.331 213.815C256.475 213.869 256.673 213.968 256.545 213.807C256.29 213.486 255.988 213.195 255.713 212.892" stroke="#00ADB5" stroke-opacity="0.5" stroke-linecap="round" stroke-linejoin="round"/>
<path d="M253.483 209.431C254.895 210.297 256.295 211.22 257.753 212.011C257.992 212.141 258.069 212.227 258.036 212.024C257.993 211.749 257.913 211.485 257.839 211.217" stroke="#00ADB5" stroke-opacity="0.5" stroke-linecap="round" stroke-linejoin="round"/>
<path d="M255.541 207.579C255.669 207.656 259.553 210.274 259.296 209.392" stroke="#00ADB5" stroke-opacity="0.5" stroke-linecap="round" stroke-linejoin="round"/>
<path d="M256.517 206.306C257.726 206.716 258.951 207.101 260.168 207.426" stroke="#00ADB5" stroke-opacity="0.5" stroke-linecap="round" stroke-linejoin="round"/>
<path d="M258.002 205.082C258.564 205.163 259.126 205.246 259.687 205.33" stroke="#00ADB5" stroke-opacity="0.5" stroke-linecap="round" stroke-linejoin="round"/>
<path d="M244.384 229.399C243.774 229.576 240.064 230.128 239.947 231.126C239.901 231.517 239.871 231.909 239.881 232.302C239.91 233.521 240.688 234.233 241.661 234.908C242.898 235.766 244.302 235.924 245.767 235.645C247.158 235.38 248.183 233.967 247.766 232.629C247.679 232.351 248.073 232.335 247.85 232.001C247.633 231.677 247.454 231.836 247.05 231.877" stroke="#00ADB5" stroke-opacity="0.5" stroke-linecap="round" stroke-linejoin="round"/>
<path d="M242.305 232.36C243.143 230.721 244.147 229.099 244.711 227.337C244.859 226.876 245.023 226.492 245.32 226.091C245.946 225.243 246.514 224.329 246.931 223.361C247.326 222.441 247.436 221.507 247.926 220.618C248.1 220.301 249.049 219.391 248.639 219.814" stroke="#00ADB5" stroke-opacity="0.5" stroke-linecap="round" stroke-linejoin="round"/>
<path d="M250.166 220.815C249.663 222.745 249.01 224.576 248.491 226.482C248.202 227.538 247.812 228.407 247.703 229.538C247.625 230.347 247.849 231.05 247.585 231.843C247.282 232.757 247.134 232.278 246.821 231.598" stroke="#00ADB5" stroke-opacity="0.5" stroke-linecap="round" stroke-linejoin="round"/>
<path d="M249.319 220.733C248.613 221.901 247.145 223.79 246.997 225.336C246.912 226.215 246.879 227.154 246.732 228.04C246.556 229.093 245.596 230.389 245.013 231.253C244.819 231.541 244.582 231.754 244.45 232.073C244.284 232.471 244.371 232.504 244.132 232.023" stroke="#00ADB5" stroke-opacity="0.5" stroke-linecap="round" stroke-linejoin="round"/>
<path d="M242.223 230.558C243.565 231.728 245.907 234.077 247.852 232.429C248.155 232.172 248.612 231.605 248.8 231.257C249.056 230.783 248.339 231.138 247.886 231.188" stroke="#00ADB5" stroke-opacity="0.5" stroke-linecap="round" stroke-linejoin="round"/>
<path d="M244.062 229.197C244.887 229.25 246.527 229.632 247.365 229.297C247.393 229.286 247.303 229.301 247.278 229.317C247.193 229.372 247.04 229.254 246.964 229.22" stroke="#00ADB5" stroke-opacity="0.5" stroke-linecap="round" stroke-linejoin="round"/>
<path d="M245.295 226.155C245.882 226.373 247.976 227.513 248.164 226.517" stroke="#00ADB5" stroke-opacity="0.5" stroke-linecap="round" stroke-linejoin="round"/>
<path d="M246.555 223.714C247.255 224.274 250.073 226.827 249.823 224.37" stroke="#00ADB5" stroke-opacity="0.5" stroke-linecap="round" stroke-linejoin="round"/>
<path d="M247.515 222.61C248.258 222.881 249.001 223.152 249.744 223.423" stroke="#00ADB5" stroke-opacity="0.5" stroke-linecap="round" stroke-linejoin="round"/>
<path d="M251.24 222.969C252.096 223.947 253.778 226.193 253.684 227.751C253.607 229.021 253.444 230.241 253.321 231.522C253.231 232.453 253.313 233.465 253.134 234.342C252.9 235.493 251.113 235.336 251.408 236.743C251.507 237.213 251.357 237.471 251.725 237.837C252.043 238.153 252.263 238.505 252.348 238.965C252.546 240.039 251.859 240.926 251.071 241.576C250.577 241.983 249.906 242.831 249.346 243.075C249.07 243.196 248.543 243.041 248.242 243.012C247.963 242.985 247.381 243.112 247.118 243.203C246.73 243.336 246.286 242.992 245.797 243.118" stroke="#00ADB5" stroke-opacity="0.5" stroke-linecap="round" stroke-linejoin="round"/>
<path d="M237.563 226.607C237.795 227.773 237.958 228.74 238.435 229.766C238.632 230.188 238.564 230.546 238.416 231.003C238.243 231.533 237.725 232.766 237.981 233.353C238.374 234.254 238.277 235.159 238.186 236.106C238.098 237.019 239.487 237.553 239.91 238.066C240.538 238.828 240.151 239.687 241.266 240.1C241.509 240.19 241.9 240.232 242.08 240.411C242.217 240.547 242.362 240.867 242.553 240.922C242.949 241.034 243.497 241.006 243.846 241.203C244.137 241.367 244.34 241.583 244.603 241.764C244.893 241.964 245.33 241.813 245.647 242.012C246.731 242.691 246.274 242.101 245.537 241.384" stroke="#00ADB5" stroke-opacity="0.5" stroke-linecap="round" stroke-linejoin="round"/>
<path d="M157.423 175.984C154.882 178.66 144.056 189.306 152.078 192.723C154.568 193.783 158.091 192.235 160.833 192.772C164.71 193.531 166.59 197.07 167.22 200.618C167.945 204.703 161.146 211.189 163.882 213.611C168.566 217.76 176.417 212.263 180.106 217.584C182.197 220.599 179.326 224.411 181.421 217.975" stroke="#00ADB5" stroke-opacity="0.5" stroke-linecap="round" stroke-linejoin="round"/>
<path d="M275.353 141.839C277.255 144.937 281.817 151.943 283.411 155.841C284.768 159.159 282.687 158.831 281.027 157.405C279.041 155.699 279.647 152.537 280.468 150.385C283.238 143.12 297.18 137.539 297.576 149.152C297.715 153.23 293.462 159.657 288.71 157.586C282.437 154.852 283.802 145.008 289.054 141.806C294.426 138.53 302.222 143.639 301.631 149.777C300.974 156.592 292.671 157.922 290.109 151.607C287.78 145.868 293.39 140.639 298.894 140.343C300.919 140.234 305.852 143.036 302.139 143.889" stroke="#00ADB5" stroke-opacity="0.5" stroke-linecap="round" stroke-linejoin="round"/>
<path d="M379.917 204.285C376.197 207.331 364.712 214.163 373.443 218.094C378.523 220.382 383.666 217.928 387.304 214.256C391.319 210.203 392.597 203.305 387.158 199.898C382.928 197.248 379.442 193.31 375.179 198.538" stroke="#00ADB5" stroke-opacity="0.5" stroke-linecap="round" stroke-linejoin="round"/>
<path d="M491.327 261.571C484.473 264.808 474.182 268.524 483.864 273.139C485.352 273.849 486.391 273.58 487.839 272.758C493.195 269.716 493.626 268.333 493.847 262.872C493.993 259.257 488.655 259.572 486.135 260.543C482.419 261.974 479.603 265.284 477.821 268.736C475.424 273.382 485.443 274.048 487.381 268.363C488.596 264.8 484.923 259.217 481.627 263.4C477.261 268.942 482.547 274.783 486.795 268.954C490.863 263.37 482.924 260.141 480.062 266.836C476.299 275.637 494.422 267.432 488.476 263.707C484.931 261.487 477.506 272.704 484.655 270.423C493.335 267.653 484.515 261.49 483.712 269.833C483.06 276.603 495.204 267.856 488.164 264.5C486.554 263.733 484.395 268.905 485.469 270.207C487.337 272.473 491.444 267.467 491.446 265.522C491.455 257.173 481.332 277.425 491.903 268.711C494.318 266.72 494.611 262.73 490.73 264.718C488.439 265.891 486.51 271.62 490.717 270.654C494.756 269.726 495.454 262.476 491.087 263.753C488.422 264.532 487.143 268.076 484.43 267.256" stroke="#00ADB5" stroke-opacity="0.5" stroke-linecap="round" stroke-linejoin="round"/>
<path d="M429.512 310.114C428.316 311.205 408.99 330.854 418.722 320.832C420.947 318.541 423.008 316.274 425.887 314.791C427.663 313.878 429.337 313.369 430.911 312.071C432.632 310.653 430.397 310.542 429.718 313.779C429.127 316.597 428.172 329.06 427.695 328.986C424.475 328.484 422.659 325.092 419.763 323.754C418.211 323.038 413.372 323.389 414.803 322.454C418.3 320.169 428.962 313.678 425.739 316.335C423.297 318.348 417.913 326.278 419.74 323.693C421.038 321.856 424.654 315.808 424.105 316.824C422.973 318.918 421.009 322.503 420.914 324.923C420.825 327.22 425.904 322.036 426.241 321.498C428.749 317.493 423.487 326.535 425.253 324.43C426.845 322.534 432.06 317.827 428.196 322.568C427.35 323.605 432.08 318.898 431.214 319.919C430.962 320.215 428.731 323.252 429.962 322.238C434.368 318.606 428.043 322.215 427.404 321.022" stroke="#00ADB5" stroke-opacity="0.5" stroke-linecap="round" stroke-linejoin="round"/>
<path d="M386.011 393.752C388.098 391.315 399.693 380.797 391.12 379.459C389.671 379.233 386.712 378.471 385.399 379.349C382.277 381.438 382.917 387.945 386.759 389.033C391.854 390.475 397.397 383.851 392.041 380.577C386.445 377.155 371.483 387.293 377.011 392.591C387.894 403.024 401.147 377.028 385.536 379.451C371.377 381.648 382.181 397.055 389.34 388.488C397.004 379.315 376.294 377.236 378.897 388.57C380.181 394.16 386.358 392.117 387.844 387.844C390.021 381.581 383.388 383.615 382.857 388.04C382.289 392.783 390.441 384.887 386.016 384.846C382.818 384.817 382.086 389.141 379.6 388.902" stroke="#00ADB5" stroke-opacity="0.5" stroke-linecap="round" stroke-linejoin="round"/>
<path d="M182.118 324.386C182.714 329.291 183.402 344.023 183.875 339.105C184.202 335.71 181.914 332.291 181.718 328.845C181.65 327.64 182.364 324.167 181.433 323.262C180.795 322.643 186.834 328.353 188.475 329.495C191.469 331.581 193.418 335.126 196.507 331.856C197.99 330.286 201.895 330.426 202.471 330.05C206.652 327.318 206.742 322.65 208.034 318.681C208.494 317.266 207.063 323.571 206.882 325.448C206.651 327.849 206.779 331.069 207.206 333.386C207.812 336.676 208.316 327.605 207.614 325.783C206.475 322.824 206.846 320.331 207.141 317.272C207.257 316.064 214.562 332.046 212.911 333.054C212.22 333.474 203.867 330.281 201.188 330.867C198.88 331.371 196.753 332.014 194.528 332.871C193.92 333.105 192.86 334.07 193.262 333.807C194.696 332.87 199.048 330.352 197.379 330.735C195.087 331.262 192.698 333.201 190.579 334.195C186.586 336.07 185.393 335.64 183.442 339.328C183.161 339.859 185.988 340.06 186.526 340.271C190.384 341.787 193.175 338.937 196.811 337.852C201.505 336.452 207.062 333.184 211.967 333.08C215.671 333.002 210.227 331.182 210.072 330.782" stroke="#00ADB5" stroke-opacity="0.5" stroke-linecap="round" stroke-linejoin="round"/>
<path d="M401.801 141.846C411.986 139.63 428.338 137.528 437.868 131.151C439.597 129.994 442.201 128.975 441.882 126.394C440.687 116.694 436.309 114.025 427.159 114.159C422.083 114.234 416.817 118.402 411.974 119.84C406.988 121.32 401.94 123.41 397.294 125.774C392.591 128.167 395.024 129.811 394.555 134.681C394.297 137.359 395.538 141.242 398.394 141.517C399.696 141.643 403.529 140.954 399.835 140.598C396.936 140.319 392.393 140.325 389.935 138.704C388.058 137.467 392.161 135.781 393.101 135.746C396.456 135.624 389.034 138.18 388.295 138.34C386.774 138.671 394.07 134.172 390.172 135.023C385.947 135.946 392.369 132.999 393.709 132.483C395.22 131.901 393.852 132.922 394.25 132.359C394.886 131.459 398.373 128.263 395.248 130.839C394.202 131.701 397.559 129.419 398.69 128.672C400.821 127.265 398.08 129.447 397.553 129.797C395.128 131.411 394.744 129.883 392.84 130.519C392.044 130.784 390.078 131.731 390.205 130.412C390.424 128.137 398.551 127.873 400.024 127.948C409.042 128.404 415.707 125.048 424.175 123.777C428.25 123.166 432.737 122.152 436.636 120.745C439.528 119.701 445.462 116.133 448.318 117.255C449.44 117.696 430.642 126.339 436.081 123.454C440.58 121.068 445.621 119.573 438.771 124.213C433.284 127.93 442.696 123.891 443.383 124.245C444.615 124.882 434.935 129.238 442.236 126.692C445.028 125.718 447.253 125.871 447.532 122.97C447.912 119.031 449.439 114.466 444.254 115.805C438.271 117.351 433.2 121.397 427.053 122.585C422.816 123.404 418.654 124.553 414.476 125.606C409.627 126.829 400.963 127.884 397.228 131.647C395.238 133.652 391.249 141.83 398.157 138.79C404.494 136.002 406.107 129.281 409.847 124.22C411.705 121.706 406.515 129.587 405.575 132.568C404.494 135.997 407.4 140.342 411.233 140.05C415.437 139.729 420.336 134.437 422.147 131.107C430.848 115.098 416.421 130.048 419.718 134.047C423.216 138.291 430.103 128.604 431.119 126.151C432.343 123.194 433.251 119.492 434.644 116.702C436.451 113.084 426.816 116.427 425.908 116.772C420.88 118.682 417.224 121.524 413.555 125.4C412.227 126.803 406.795 133.487 409.886 135.423C414.028 138.017 420.021 131.769 420.48 128.271C422.034 116.423 411.66 121.573 405.3 125.663C401.37 128.191 403.989 134.251 404.706 133.66" stroke="#00ADB5" stroke-opacity="0.5" stroke-linecap="round" stroke-linejoin="round"/>
<path d="M241.817 413.199C241.572 413.359 232.23 419.969 232.434 417.851C232.553 416.611 233.636 415.375 234.565 414.647C236.401 413.207 243.166 412.613 241.188 416.372C239.862 418.893 235.102 422.338 234.341 417.271C234.026 415.166 237.95 411.382 239.922 413.34C242.098 415.5 236.784 417.473 235.273 416.449C232.574 414.621 236.528 409.418 239.165 410.828C241.923 412.302 237.656 415.195 236.283 415.723C233.074 416.959 233.741 414.526 232.331 412.815" stroke="#00ADB5" stroke-opacity="0.5" stroke-linecap="round" stroke-linejoin="round"/>
<path d="M99.8054 398.996C102.348 404.266 107.606 409.987 101.304 413.955C99.6791 414.978 90.3054 418.792 91.3633 413.409C92.6515 406.853 102.529 407.656 103.711 401.782C104.88 395.974 90.6563 396.835 87.8455 392.554C86.0846 389.872 85.0025 384.199 85.777 381.068C86.0787 379.848 89.4471 377.749 88.9113 379.959C87.9305 384.003 73.6951 393.236 81.2025 397.44C86.2358 400.259 88.1557 394.534 92.1635 393.499C100.419 391.366 86.4107 411.728 86.9408 406.223" stroke="#00ADB5" stroke-opacity="0.5" stroke-linecap="round" stroke-linejoin="round"/>
<path d="M350.109 491.877C347.127 497.389 340.512 514.619 341.112 508.382C341.206 507.41 341.468 506.66 341.892 505.783C343.881 501.664 346.091 497.865 349.105 494.367C350.75 492.458 353.052 486.625 354.683 491.377C355.444 493.594 357.637 499.774 356.248 501.992C354.504 504.775 349.804 506.016 346.765 505.84C345.974 505.795 337.6 506.085 340.516 503.887C343.943 501.303 347.836 492.817 352.647 492.68C353.39 492.659 354.876 493.298 355.487 493.718C356.562 494.458 355.069 495.465 354.445 496.292C353.698 497.285 347.901 503.922 347.922 503.6C348.237 498.81 353.805 492.346 356.794 488.994C357.866 487.792 351.981 496.084 350.64 497.954C349.603 499.401 350.45 502.77 346.529 501.585" stroke="#00ADB5" stroke-opacity="0.5" stroke-linecap="round" stroke-linejoin="round"/>
<path d="M228.185 54.7611C224.965 63.6858 222.042 72.203 220.295 81.4545C220.12 82.3799 219.472 82.9266 219.988 83.7177C220.758 84.8949 223.74 78.1678 224.809 76.3926C228.198 70.7662 231.6 68.7446 232.297 61.506C232.398 60.4615 232.977 54.4498 232.594 58.4189C232.27 61.7887 232.588 65.1807 232.032 68.5348C231.612 71.0699 228.499 77.721 230.482 76.0865C233.542 73.5635 232.654 59.3507 228.318 58.5657C222.401 57.4942 218.28 70.1468 217.211 74.1032C215.967 78.7063 219.077 80.9831 223.067 77.6946C228.512 73.2059 230.572 63.0983 226.865 56.8679C221.772 48.3084 216.536 62.3636 215.713 65.8465C213.853 73.7251 218.065 76.7128 223.894 71.5429C226.038 69.6414 230.303 66.4073 229.793 63.0873C229.116 58.6711 222.341 62.2437 220.888 63.9934C218.829 66.4744 218.216 73.0892 220.95 75.2569C223.503 77.2808 226.856 70.2359 226.727 68.3767C226.181 60.4917 210.366 71.4025 217.214 76.5137C223.173 80.9622 229.023 64.191 221.031 65.5649C218.805 65.9476 213.092 71.2964 217.557 71.7263" stroke="#00ADB5" stroke-opacity="0.5" stroke-linecap="round" stroke-linejoin="round"/>
<path d="M74.8824 190.786C71.8841 197.234 69.778 201.33 63.4507 204.499C61.862 205.295 59.7221 206.767 59.2328 208.62C58.1876 212.578 64.1041 217.621 67.8248 216.766C75.6647 214.965 64.8941 206.341 63.877 204.041C62.106 200.037 70.4857 193.957 73.8517 196.301C76.4717 198.126 77.1768 203.674 75.2824 206.168C72.5227 209.801 67.3758 209.459 63.4216 208.465C60.2725 207.673 53.8079 207.715 55.2301 212.643C57.0096 218.811 68.408 216.766 70.5581 211.885C72.6514 207.134 64.0549 204.44 66.3804 200.02C67.9778 196.984 72.4405 193.432 76.0637 193.78C80.4037 194.198 75.2889 201.888 74.52 203.096C71.1246 208.433 66.7022 208.572 61.0238 209.557C50.3364 211.409 61.515 212.891 62.48 209.697" stroke="#00ADB5" stroke-opacity="0.5" stroke-linecap="round" stroke-linejoin="round"/>
<path d="M55.3859 261.392C53.8696 265.475 49.8909 272.31 49.7775 276.901C49.7244 279.052 50.9203 272.75 51.379 270.647C52.2531 266.642 53.2472 262.118 55.7547 258.782C56.1998 258.19 64.022 270.144 64.6479 272.042C66.323 277.123 63.7277 275.936 60.2126 277.2C58.259 277.903 45.0745 281.176 45.189 279.986C45.309 278.74 47.9569 276.437 48.6251 275.438C50.7165 272.309 53.0183 268.349 54.123 264.739C56.4823 257.029 53.7296 273.098 53.611 274.331C53.5389 275.079 53.4082 279.484 51.6613 279.316C49.475 279.105 53.5355 275.343 54.4691 273.355C55.4591 271.247 59.1827 265.11 58.6369 262.734C57.8638 259.368 56.3581 269.305 55.9108 272.73C55.6076 275.051 54.1065 278.829 56.2868 275.235C56.9816 274.089 59.3251 269.345 59.2593 269.701C58.7039 272.707 57.1813 275.713 56.8879 278.761C56.5875 281.88 59.1997 271.998 62.1636 270.98C62.9005 270.727 61.3333 276.551 61.2498 277.418C61.0979 278.995 63.348 271.5 63.1961 273.078C63.1538 273.518 62.2695 276.116 61.8707 275.243C60.2363 271.668 58.9628 269.434 55.0602 267.827C53.2827 267.095 47.4264 266.916 49.3397 267.1C50.5974 267.221 52.994 263.035 54.2816 264.313C55.9899 266.009 52.9785 270.608 52.229 272.199C51.0018 274.804 50.7616 270.951 53.123 271.462C55.5835 271.994 52.1596 280.939 53.7503 278.988C54.4887 278.082 56.9026 273.496 56.7832 274.048C54.4757 284.712 56.0623 271.002 57.8439 274.327" stroke="#00ADB5" stroke-opacity="0.5" stroke-linecap="round" stroke-linejoin="round"/>
<path d="M328.602 143.791C335.304 144.104 341.507 147.19 341.214 139.186C341.069 135.22 339.491 128.607 341.004 124.881C342.611 120.925 350.952 112.459 344.859 108.968C339.749 106.041 332.11 112.191 330.68 116.715C330.085 118.596 329.595 124.605 332.771 124.911C335.172 125.142 336.932 122.933 338.825 125.229C341.3 128.231 341.548 130.776 339.271 134.031C333.805 141.845 316.216 130.836 327.13 121.84C328.625 120.607 334.625 114.869 337.01 116.913C340.291 119.725 339.195 126.118 337.066 129.146C334.944 132.165 327.96 134.869 325.735 130.524C324.635 128.376 325.385 127.08 327.546 127.288" stroke="#00ADB5" stroke-opacity="0.5" stroke-linecap="round" stroke-linejoin="round"/>
<path d="M379.725 198.227C380.364 198.038 400.453 190.417 399.06 195.533C398.313 198.278 398.382 200.913 398.505 203.739C398.553 204.82 400.352 213.381 397.748 213.13C392.896 212.663 388.395 209.771 383.449 210.225C381.398 210.414 377.255 211.407 377.415 208.174C377.535 205.75 376.575 194.709 381.24 196.227C385.085 197.479 385.556 194.377 382.099 201.042C381.608 201.988 378.293 209.134 378.762 208.833C383.453 205.827 386.479 199.469 390.858 195.86C393.592 193.606 388.353 203.204 387.713 204.404C384.444 210.537 392.363 199.388 393.239 198.294C397.085 193.49 393.656 202.423 392.995 203.884C391.007 208.277 396.59 200.255 398.608 199.31C405.295 196.181 398.075 208.518 396.993 205.709" stroke="#00ADB5" stroke-opacity="0.5" stroke-linecap="round" stroke-linejoin="round"/>
<path d="M318.561 292.024C318.121 299.758 317.581 303.949 324.581 299.717C326.567 298.516 325.465 301.703 324.935 302.455C324.048 303.71 318.954 309.96 323.682 307.831C324.879 307.292 328.063 306.292 327.822 308.788C327.785 309.181 325.949 313.871 327.42 312.658C329.833 310.67 330.67 302.38 331.1 299.169C331.194 298.468 331.58 297.679 330.921 297.976C327.531 299.502 325.08 308.968 323.05 312.561C321.298 315.662 317.514 311.445 315.272 309.696C311.023 306.379 313.673 308.699 313.801 308.496" stroke="#00ADB5" stroke-opacity="0.5" stroke-linecap="round" stroke-linejoin="round"/>
<path d="M275.778 357.213C275.735 357.456 273.67 372.445 274.485 365.142C274.734 362.913 274.885 360.674 275.13 358.444C275.828 352.113 276.676 355.163 279.167 358.039C280.309 359.358 284.673 362.387 283.695 364.736C283.407 365.428 275.877 366.004 274.664 366.335C273.755 366.584 268.261 369.347 268.276 369.189C268.651 365.293 270.429 361.21 271.266 357.367C273.039 349.228 276.613 371.816 277.52 366.287C277.734 364.985 278.426 357.182 278.239 359.126C278.1 360.574 278.405 368.395 278.892 363.333C279.003 362.187 279.113 361.042 279.223 359.896C279.275 359.356 279.321 361.97 279.57 361.488C280.471 359.741 279.601 355.973 279.173 360.421C278.692 365.413 277.638 361.684 274.582 361.389C271.968 361.138 269.548 370.574 271.109 368.462C272.476 366.612 270.925 358.393 271.556 362.597C271.886 364.798 273.406 362.547 274.275 361.83" stroke="#00ADB5" stroke-opacity="0.5" stroke-linecap="round" stroke-linejoin="round"/>
</svg>
